<?xml version="1.0" standalone="no"?>
<!DOCTYPE svg PUBLIC "-//W3C//DTD SVG 20010904//EN"
 "http://www.w3.org/TR/2001/REC-SVG-20010904/DTD/svg10.dtd">
<svg version="1.0" xmlns="http://www.w3.org/2000/svg"
 width="411.000000pt" height="200.000000pt" viewBox="0 0 411.000000 200.000000"
 preserveAspectRatio="xMidYMid meet">

<g transform="translate(0.000000,200.000000) scale(0.100000,-0.100000)"
fill="#000000" stroke="none">
<path d="M2368 1988 c-21 -6 -49 -24 -64 -41 -23 -27 -26 -38 -22 -86 5 -59
33 -94 86 -108 14 -3 34 -15 42 -26 14 -17 17 -18 29 -3 7 9 22 16 33 16 32 0
78 29 98 63 26 43 27 116 1 149 -34 43 -121 58 -203 36z m162 -23 c43 -22 57
-74 35 -131 -18 -48 -47 -74 -82 -74 -12 0 -29 -8 -39 -17 -15 -15 -18 -15
-28 -2 -6 9 -24 19 -39 23 -64 16 -103 95 -75 153 7 15 29 36 48 45 43 22 140
24 180 3z"/>
<path d="M2381 1908 c14 -9 15 -16 6 -35 -13 -30 -5 -37 30 -25 25 9 26 10 5
11 -22 1 -22 2 -7 31 l16 30 -33 -1 c-28 0 -30 -2 -17 -11z"/>
<path d="M2460 1846 c0 -2 7 -6 15 -10 8 -3 15 -1 15 4 0 6 -7 10 -15 10 -8 0
-15 -2 -15 -4z"/>
<path d="M2470 1810 c0 -6 7 -10 15 -10 8 0 15 2 15 4 0 2 -7 6 -15 10 -8 3
-15 1 -15 -4z"/>
<path d="M3317 1599 c-96 -23 -137 -66 -137 -146 0 -29 6 -69 14 -88 16 -38
68 -75 104 -75 13 0 33 -11 46 -25 28 -30 42 -31 56 -5 7 13 21 20 39 20 33 0
86 33 115 73 17 23 21 43 21 102 0 67 -3 76 -28 103 -46 48 -134 64 -230 41z
m154 -19 c68 -19 100 -82 85 -165 -10 -52 -59 -104 -107 -111 -24 -4 -46 -15
-55 -28 l-15 -21 -16 23 c-9 12 -26 22 -40 22 -94 0 -163 141 -106 218 41 56
166 86 254 62z"/>
<path d="M2354 1555 c-41 -41 -94 -189 -94 -262 0 -16 -5 -34 -12 -41 -9 -9
-9 -12 1 -12 7 0 11 -8 9 -17 -7 -28 30 -95 70 -130 26 -23 34 -35 26 -43 -7
-7 -16 -5 -29 10 -62 68 -171 -42 -226 -227 -12 -41 -29 -58 -29 -29 0 33 -87
183 -135 233 -70 72 -115 71 -154 -6 l-20 -38 -148 -6 c-81 -4 -160 -10 -174
-13 -21 -5 -29 1 -52 35 -67 101 -169 43 -219 -125 -13 -40 -25 -74 -29 -74
-3 0 -13 23 -23 51 -10 28 -36 69 -57 91 -45 47 -67 46 -116 -8 -30 -34 -32
-35 -73 -24 -40 11 -236 39 -273 40 -11 0 -24 16 -37 44 -36 85 -99 87 -175 5
-57 -61 -148 -246 -173 -348 -13 -59 -20 -71 -37 -72 -16 -1 -17 -2 -3 -6 20
-5 25 -48 7 -59 -8 -5 -6 -10 5 -16 9 -5 16 -19 16 -32 0 -35 26 -91 61 -131
l31 -35 -28 -72 c-39 -100 -64 -138 -89 -135 -19 2 -20 11 -25 147 -3 80 -9
151 -13 158 -5 6 -19 12 -33 12 -41 0 -57 -53 -58 -197 -1 -114 -2 -122 -21
-125 -11 -2 -20 -10 -20 -18 0 -12 19 -16 100 -18 72 -2 102 -7 107 -17 5 -7
32 -19 62 -25 64 -13 128 -1 160 29 22 21 25 21 829 21 l807 0 11 -24 c22 -47
89 -58 173 -30 26 9 53 25 59 35 11 18 27 19 205 19 192 0 194 0 223 -25 30
-25 86 -45 127 -45 37 0 90 27 97 49 10 33 73 29 101 -6 20 -26 28 -28 91 -28
52 0 77 5 105 22 31 18 59 23 180 29 139 6 144 6 183 -17 58 -35 162 -34 199
0 25 23 28 24 150 17 123 -7 155 -1 128 26 -6 6 -8 33 -5 63 7 69 -17 169 -65
265 -41 82 -62 101 -89 84 -29 -18 -27 -61 6 -148 41 -111 52 -163 41 -209 -4
-21 -10 -40 -12 -41 -9 -8 -124 -15 -134 -8 -6 4 -20 34 -32 67 -11 33 -26 74
-32 90 -12 28 -10 32 30 74 45 47 82 120 94 183 5 26 12 38 24 38 16 1 16 1 0
11 -10 5 -18 19 -18 29 0 10 8 24 18 29 14 9 14 10 1 11 -11 0 -20 21 -32 77
-22 102 -85 227 -152 300 -68 75 -104 93 -141 68 -15 -9 -33 -35 -42 -56 -15
-38 -16 -39 -68 -39 -28 0 -105 -9 -169 -20 l-118 -20 -34 40 c-61 71 -122 49
-176 -65 l-24 -49 -38 72 c-42 81 -93 132 -131 132 l-26 0 36 41 c19 23 38 54
41 70 4 16 10 29 14 29 11 0 3 135 -10 184 -36 134 -129 221 -161 151 -11 -24
-13 -25 -123 -25 l-111 0 -22 30 c-27 37 -55 38 -88 5z m36 -341 c0 -6 -9 -14
-20 -17 -14 -4 -20 0 -20 12 0 10 8 17 20 17 11 0 20 -6 20 -12z m400 1 c0
-15 -62 -14 -67 1 -2 6 11 11 32 11 20 0 35 -5 35 -12z m-450 -5 c0 -5 -4 -10
-10 -10 -5 0 -10 5 -10 10 0 6 5 10 10 10 6 0 10 -4 10 -10z m-434 -182 c52
-48 103 -135 134 -228 16 -51 20 -78 14 -125 -3 -33 -11 -65 -16 -72 -5 -7 -7
-17 -3 -23 3 -5 -1 -10 -9 -10 -9 0 -16 -7 -16 -15 0 -8 6 -15 14 -15 21 0 30
-19 16 -35 -6 -8 -9 -19 -5 -25 4 -6 1 -24 -5 -41 -9 -22 -19 -29 -39 -29 -37
0 -61 -20 -85 -71 -19 -40 -27 -46 -87 -66 -87 -29 -217 -45 -309 -37 -105 9
-115 14 -130 69 -19 69 -53 105 -98 105 -23 0 -44 -8 -59 -22 -26 -25 -27 -24
-48 25 -15 36 -14 37 5 37 22 0 27 15 8 27 -9 5 -13 37 -14 93 -1 47 -3 123
-5 170 -3 78 -1 90 27 150 35 76 88 140 114 140 10 0 30 -15 44 -32 15 -18 31
-39 37 -46 7 -8 22 -11 37 -8 55 12 210 26 279 26 l73 0 20 39 c16 33 41 59
58 61 1 0 23 -19 48 -42z m1769 22 c70 -43 157 -188 190 -315 20 -80 20 -115
-2 -116 -17 -1 -17 -2 0 -6 19 -5 24 -43 5 -43 -10 0 -10 -2 0 -9 11 -6 11
-17 2 -52 -48 -183 -225 -282 -505 -283 -145 -1 -208 13 -286 62 -54 35 -99
112 -80 136 8 10 9 15 1 18 -7 2 -7 13 1 36 7 22 16 31 25 28 8 -3 14 -1 14 4
0 6 -4 10 -10 10 -5 0 -10 11 -10 25 0 17 6 25 18 25 16 1 16 1 0 11 -13 7
-18 23 -18 59 0 27 -7 83 -16 124 l-17 74 26 56 c29 62 67 106 93 106 9 0 34
-19 55 -41 l39 -42 77 17 c64 13 233 35 280 36 6 0 14 13 18 29 6 30 39 71 57
71 6 0 25 -9 43 -20z m-1358 -24 c10 -13 26 -38 35 -55 15 -27 22 -31 61 -31
24 0 52 7 63 15 21 16 134 21 134 5 0 -5 17 -14 39 -21 49 -15 94 4 99 41 4
29 39 70 60 70 23 0 80 -67 113 -132 39 -76 69 -195 69 -268 0 -51 -3 -59 -22
-65 -20 -6 -20 -8 -5 -12 21 -6 23 -33 2 -33 -13 0 -13 -3 -3 -20 11 -17 9
-28 -16 -76 -66 -125 -197 -184 -410 -184 -168 0 -314 48 -385 125 -41 45 -65
115 -42 123 16 5 14 22 -4 22 -20 0 -19 10 3 26 16 13 16 13 0 14 -16 0 -18
10 -18 73 0 135 55 289 131 369 41 44 70 48 96 14z m-1804 -4 c9 -10 22 -32
28 -49 13 -39 22 -43 121 -44 45 -1 121 -9 170 -19 l89 -19 37 41 c46 48 67
46 104 -10 59 -89 98 -271 81 -382 -7 -46 -12 -55 -33 -60 -21 -5 -22 -7 -7
-13 9 -3 17 -13 17 -22 0 -8 -8 -15 -17 -15 -15 0 -15 -2 -4 -9 21 -14 -17
-72 -61 -93 -19 -9 -51 -35 -69 -56 -44 -52 -94 -66 -229 -64 -224 1 -436 95
-491 217 -22 47 -25 105 -6 105 6 0 4 5 -6 11 -23 14 -21 28 5 39 18 7 19 9 6
9 -21 1 -22 19 -7 93 24 111 126 285 197 333 44 30 54 31 75 7z m3501 -606
c33 -70 56 -163 56 -229 0 -73 -6 -87 -40 -87 l-27 0 4 68 c4 53 -1 85 -22
157 -35 116 -39 131 -31 151 9 24 30 3 60 -60z m-1847 -99 l41 -29 -22 -59
c-16 -43 -31 -65 -54 -79 -17 -10 -36 -28 -42 -39 -10 -20 -40 -28 -52 -16 -3
3 6 51 20 107 24 97 25 104 9 146 -12 34 -13 49 -4 62 9 16 13 14 37 -23 15
-23 45 -55 67 -70z m-2043 -62 c4 -60 10 -120 13 -133 5 -21 3 -23 -28 -20
-34 3 -34 3 -39 63 -6 61 9 189 24 214 15 24 23 -7 30 -124z m1044 86 c18 -27
32 -57 32 -67 0 -11 9 -52 20 -93 10 -41 17 -78 14 -83 -7 -12 -164 -10 -164
2 0 5 15 30 33 56 37 53 44 121 15 150 -15 15 -15 19 0 50 8 19 16 34 17 34 1
0 16 -22 33 -49z m140 19 c21 -23 58 -138 68 -212 l7 -48 -55 0 -54 0 -22 93
c-26 108 -28 150 -6 171 21 21 39 20 62 -4z m729 -6 c16 -25 15 -31 -11 -140
l-28 -114 -54 0 c-30 0 -54 4 -54 9 0 22 30 149 45 191 29 81 70 103 102 54z
m938 5 c10 -29 73 -97 107 -115 35 -18 35 -25 1 -91 -25 -51 -28 -53 -69 -53
-56 0 -101 43 -131 124 l-21 58 46 49 c26 26 50 48 54 48 4 1 10 -8 13 -20z
m-1873 -66 c33 -29 19 -73 -54 -165 -29 -37 -31 -38 -100 -38 -81 0 -80 -2
-19 88 45 66 113 132 138 132 9 0 25 -7 35 -17z m-728 -38 c124 -73 339 -112
474 -86 49 10 52 2 22 -46 l-20 -33 -192 0 c-106 0 -197 4 -203 8 -5 4 -15 16
-21 27 -15 28 -72 55 -116 55 l-37 0 21 50 c11 28 23 50 25 50 2 0 24 -11 47
-25z m1945 -15 c139 -44 319 -44 446 0 32 11 60 19 61 17 2 -2 10 -20 19 -40
14 -35 14 -37 -2 -37 -46 0 -95 -23 -111 -51 l-17 -29 -190 0 -190 0 -28 35
c-18 23 -36 35 -52 35 -13 0 -27 5 -30 10 -7 11 15 80 25 80 3 0 34 -9 69 -20z
m1434 -15 c9 -20 17 -38 17 -40 0 -3 -24 -3 -52 0 -64 7 -97 -8 -118 -52 l-15
-33 -141 0 -141 0 -11 26 c-15 32 -75 58 -119 51 -33 -6 -39 -2 -25 20 5 9 22
8 67 -3 130 -30 334 -12 450 42 66 30 69 30 88 -11z m-1889 -63 l-7 -62 -217
0 c-239 0 -230 -2 -230 61 l0 30 53 -6 c28 -3 66 -8 83 -11 46 -7 206 14 267
34 28 10 53 17 55 17 1 -1 -1 -29 -4 -63z m1905 -17 c34 -29 45 -56 36 -84 -5
-16 -15 -20 -58 -19 -29 0 -57 4 -64 10 -7 5 -16 7 -21 4 -18 -11 -52 25 -52
54 0 61 101 83 159 35z m-3379 0 c38 -20 49 -59 24 -86 -12 -13 -27 -19 -41
-16 -13 2 -26 0 -29 -4 -7 -12 -51 -11 -58 0 -3 5 -14 7 -24 4 -31 -8 -47 21
-32 57 23 55 99 76 160 45z m2853 4 c28 -15 37 -28 37 -56 0 -24 -42 -59 -59
-49 -5 4 -12 2 -16 -3 -3 -6 -31 -9 -63 -8 -63 2 -73 15 -53 66 22 52 101 77
154 50z m-958 -19 c35 -29 2 -100 -40 -84 -8 3 -15 2 -15 -4 0 -13 -49 -22
-56 -10 -3 5 -11 5 -19 -2 -34 -28 -59 25 -34 71 23 44 125 61 164 29z m622
-12 c13 -13 25 -37 26 -54 2 -29 2 -29 -55 -31 -32 -1 -60 2 -63 8 -4 5 -11 7
-16 3 -14 -8 -59 23 -59 42 0 8 12 27 26 41 22 22 32 25 71 20 30 -3 54 -13
70 -29z"/>
<path d="M1848 1009 c-10 -6 -18 -21 -18 -34 0 -20 8 -27 40 -36 47 -14 57 -8
44 28 -12 35 -44 55 -66 42z"/>
<path d="M1282 957 c-17 -20 -25 -64 -13 -71 13 -9 70 21 78 40 12 32 -42 59
-65 31z"/>
<path d="M1763 590 c-60 -27 -54 -40 17 -40 60 0 61 0 57 28 -5 34 -20 36 -74
12z"/>
<path d="M1396 587 c-11 -8 -17 -23 -14 -38 2 -19 10 -25 35 -27 28 -3 33 0
39 24 5 20 2 31 -11 41 -23 16 -27 16 -49 0z"/>
<path d="M1595 541 c-3 -5 -1 -12 5 -16 13 -8 13 -55 0 -55 -5 0 -10 7 -10 15
0 8 -5 15 -11 15 -6 0 -9 -10 -7 -22 3 -20 8 -23 48 -21 25 1 48 2 53 2 4 1 7
13 7 29 -1 24 -2 25 -14 10 -21 -28 -29 -21 -23 17 5 32 4 35 -18 35 -13 0
-26 -4 -30 -9z"/>
<path d="M3632 998 c-26 -26 0 -58 47 -58 26 0 26 10 0 44 -23 29 -30 31 -47
14z"/>
<path d="M3086 908 c-15 -22 -22 -58 -11 -58 4 0 19 7 35 15 32 16 38 33 18
53 -17 17 -25 15 -42 -10z"/>
<path d="M3581 594 c-42 -35 -39 -45 12 -38 52 8 72 24 32 25 -29 0 -29 1 -7
11 12 6 22 15 22 20 0 16 -29 8 -59 -18z"/>
<path d="M3190 550 c0 -5 10 -10 23 -10 19 -1 19 -2 -8 -15 l-30 -13 52 -1
c62 -1 75 12 34 34 -34 17 -71 20 -71 5z"/>
<path d="M3425 531 c-3 -5 -1 -12 5 -16 12 -7 30 2 30 16 0 12 -27 12 -35 0z"/>
<path d="M2796 985 c-21 -22 -20 -42 3 -55 55 -29 82 6 37 49 -22 20 -25 21
-40 6z"/>
<path d="M2247 972 c-16 -17 -24 -62 -12 -62 3 0 21 7 40 14 36 15 44 33 23
54 -17 17 -32 15 -51 -6z"/>
<path d="M2690 610 c-24 -24 -25 -43 -4 -64 18 -19 55 -21 72 -4 19 19 14 55
-10 72 -29 20 -34 20 -58 -4z"/>
<path d="M2302 608 c-32 -32 5 -92 49 -81 29 8 44 45 30 72 -13 23 -59 29 -79
9z"/>
<path d="M2535 562 c-7 -5 -7 -18 2 -42 8 -23 12 -28 12 -14 1 11 6 25 12 31
20 20 -4 42 -26 25z"/>
<path d="M445 965 c-34 -33 -32 -55 3 -55 16 0 37 6 47 14 17 12 18 18 7 40
-14 32 -26 33 -57 1z"/>
<path d="M987 893 c-16 -16 -5 -41 23 -53 39 -16 46 -9 30 30 -12 28 -37 39
-53 23z"/>
<path d="M394 596 c-10 -8 -16 -18 -11 -22 4 -4 13 -2 19 4 22 22 77 14 103
-14 19 -20 25 -23 25 -11 0 47 -91 75 -136 43z"/>
<path d="M844 536 c-10 -8 -16 -18 -11 -22 4 -4 13 -2 19 4 17 17 70 15 96 -4
32 -22 43 -7 13 17 -28 23 -89 25 -117 5z"/>
<path d="M676 496 c4 -16 1 -32 -6 -41 -11 -13 -10 -14 4 -9 9 3 16 17 16 30
0 13 0 27 1 31 0 4 -5 9 -11 11 -7 3 -9 -5 -4 -22z"/>
<path d="M716 443 c-6 -14 -5 -15 5 -6 7 7 10 15 7 18 -3 3 -9 -2 -12 -12z"/>
<path d="M885 1556 c-102 -32 -146 -74 -152 -143 -3 -37 1 -59 19 -92 30 -58
61 -80 126 -88 28 -3 57 -12 63 -19 17 -21 34 -17 47 10 6 14 22 26 40 29 42
9 87 58 101 111 19 78 -12 163 -70 193 -31 16 -122 15 -174 -1z m177 -26 c37
-28 51 -72 46 -135 -4 -46 -10 -62 -38 -90 -19 -19 -40 -35 -47 -35 -8 0 -25
-12 -39 -27 -23 -25 -27 -26 -35 -10 -7 12 -23 17 -53 17 -100 0 -177 115
-133 199 40 78 236 131 299 81z"/>
<path d="M975 1481 c-3 -5 -1 -12 5 -16 5 -3 10 1 10 9 0 18 -6 21 -15 7z"/>
<path d="M909 1455 c-1 -6 -2 -21 -2 -34 -2 -31 -27 -40 -34 -12 -3 12 -10 21
-15 21 -11 0 -6 -38 11 -82 13 -35 36 -38 27 -4 -8 34 21 44 34 11 5 -14 14
-25 20 -25 13 0 13 -4 -6 61 -15 52 -33 84 -35 64z"/>
<path d="M984 1410 c7 -45 20 -69 32 -58 7 8 -14 79 -28 93 -7 7 -8 -5 -4 -35z"/>
</g>
</svg>
