<?xml version="1.0" standalone="no"?>
<!DOCTYPE svg PUBLIC "-//W3C//DTD SVG 20010904//EN"
 "http://www.w3.org/TR/2001/REC-SVG-20010904/DTD/svg10.dtd">
<svg version="1.0" xmlns="http://www.w3.org/2000/svg"
 width="53.000000pt" height="129.000000pt" viewBox="0 0 53.000000 129.000000"
 preserveAspectRatio="xMidYMid meet">

<g transform="translate(0.000000,129.000000) scale(0.100000,-0.100000)"
fill="#000000" stroke="none">
<path d="M34 1183 c3 -54 13 -243 22 -419 l15 -322 -31 -102 c-16 -57 -30
-120 -30 -141 0 -46 27 -79 65 -79 20 0 26 -7 36 -41 22 -70 80 -97 142 -64
21 11 33 12 52 3 52 -24 135 21 135 73 0 12 13 24 35 33 23 10 37 24 41 41 10
40 -2 130 -30 219 l-24 78 34 407 c19 223 34 407 34 409 0 1 -113 2 -251 2
l-251 0 6 -97z"/>
</g>
</svg>
